<svg id="Layer_1" data-name="Layer 1" xmlns="http://www.w3.org/2000/svg" width="494.77" height="306.59" viewBox="0 0 494.77 306.59"><defs><style>.cls-1{fill:#14bf96;}.cls-2{fill:#93dbf7;}.cls-3{fill:#c3eefe;}.cls-4,.cls-7{fill:none;stroke-width:2px;}.cls-4,.cls-6{stroke:#37c5fd;}.cls-4,.cls-6,.cls-7{stroke-linecap:round;stroke-miterlimit:10;}.cls-5{fill:#10a7e3;}.cls-6{fill:#1865f2;stroke-width:1.22px;}.cls-7{stroke:#789ba8;}.cls-8{fill:#789ba8;}</style></defs><title>knowledge_base</title><path class="cls-1" d="M313.43,109.6h-55a14.51,14.51,0,0,0-14.51,14.51,14.51,14.51,0,0,0-14.5-14.51h-55a2.35,2.35,0,0,0-2.34,2.35v94.43a2.34,2.34,0,0,0,2.34,2.34h57.88a5.71,5.71,0,0,0,4.91,2.81H251a5.7,5.7,0,0,0,4.91-2.81h57.48a2.35,2.35,0,0,0,2.35-2.34V112A2.35,2.35,0,0,0,313.43,109.6Z"/><path class="cls-2" d="M235.51,129.67h17.26a0,0,0,0,1,0,0v72.78a3.47,3.47,0,0,1-3.47,3.47H239a3.47,3.47,0,0,1-3.47-3.47V129.67A0,0,0,0,1,235.51,129.67Z"/><path class="cls-3" d="M258.33,103.58A14.39,14.39,0,0,0,243.94,118a14.39,14.39,0,0,0-14.39-14.39H178.13V202.7H309.76V103.58Z"/><line class="cls-4" x1="189.8" y1="161.21" x2="232.83" y2="161.21"/><line class="cls-4" x1="189.8" y1="174.84" x2="232.83" y2="174.84"/><line class="cls-4" x1="252.77" y1="120.34" x2="295.8" y2="120.34"/><line class="cls-4" x1="252.77" y1="133.97" x2="295.8" y2="133.97"/><line class="cls-4" x1="252.77" y1="147.59" x2="295.8" y2="147.59"/><line class="cls-4" x1="252.77" y1="161.21" x2="295.8" y2="161.21"/><line class="cls-4" x1="252.77" y1="174.84" x2="295.8" y2="174.84"/><path class="cls-2" d="M243.94,202.83H178.13V193.2h56.06a9.74,9.74,0,0,1,9.75,9.75Z"/><path class="cls-2" d="M309.76,202.83H243.94V203a9.75,9.75,0,0,1,9.75-9.75h56.07Z"/><rect class="cls-4" x="189.8" y="120.34" width="43.02" height="27.25"/><path class="cls-5" d="M0,183c0,15.45,11.66,5.41,26,5.41H47c14.38,0,26,10,26-5.41,0-13.92-9.47-25.47-21.85-27.62a21.29,21.29,0,0,1-27.6-.24C10.38,156.42,0,168.39,0,183Z"/><path class="cls-5" d="M57.12,136c0-11.6-8.77-21-19.56-21S18,124.43,18,136s8.78,21,19.56,21S57.12,147.62,57.12,136Z"/><rect class="cls-3" x="81.9" y="126.38" width="46.88" height="47"/><line class="cls-6" x1="90.65" y1="134.34" x2="118.77" y2="134.34"/><line class="cls-6" x1="90.65" y1="142.1" x2="118.77" y2="142.1"/><line class="cls-6" x1="90.65" y1="149.86" x2="118.77" y2="149.86"/><line class="cls-6" x1="90.65" y1="157.62" x2="118.77" y2="157.62"/><line class="cls-6" x1="90.65" y1="165.38" x2="118.77" y2="165.38"/><path class="cls-5" d="M494.77,183c0,15.45-11.65,5.41-26,5.41h-21c-14.38,0-26,10-26-5.41,0-13.92,9.46-25.47,21.85-27.62a21.27,21.27,0,0,0,27.59-.24C484.4,156.42,494.77,168.39,494.77,183Z"/><path class="cls-5" d="M437.65,136c0-11.6,8.78-21,19.56-21s19.56,9.43,19.56,21-8.77,21-19.56,21S437.65,147.62,437.65,136Z"/><rect class="cls-3" x="366" y="126.38" width="46.88" height="47" transform="translate(778.88 299.75) rotate(-180)"/><line class="cls-6" x1="404.13" y1="134.34" x2="376" y2="134.34"/><line class="cls-6" x1="404.13" y1="142.1" x2="376" y2="142.1"/><line class="cls-6" x1="404.13" y1="149.86" x2="376" y2="149.86"/><line class="cls-6" x1="404.13" y1="157.62" x2="376" y2="157.62"/><line class="cls-6" x1="404.13" y1="165.38" x2="376" y2="165.38"/><path class="cls-5" d="M406.77,68c0,15.45-11.65,5.41-26,5.41h-21c-14.38,0-26,10-26-5.41,0-13.92,9.46-25.47,21.85-27.62a21.27,21.27,0,0,0,27.59-.24C396.4,41.42,406.77,53.39,406.77,68Z"/><path class="cls-5" d="M349.65,21c0-11.6,8.78-21,19.56-21s19.56,9.43,19.56,21-8.77,21-19.56,21S349.65,32.62,349.65,21Z"/><rect class="cls-3" x="278" y="11.38" width="46.88" height="47" transform="translate(602.88 69.75) rotate(-180)"/><line class="cls-6" x1="316.13" y1="19.34" x2="288" y2="19.34"/><line class="cls-6" x1="316.13" y1="27.1" x2="288" y2="27.1"/><line class="cls-6" x1="316.13" y1="34.86" x2="288" y2="34.86"/><line class="cls-6" x1="316.13" y1="42.62" x2="288" y2="42.62"/><line class="cls-6" x1="316.13" y1="50.38" x2="288" y2="50.38"/><path class="cls-5" d="M84,68c0,15.45,11.66,5.41,26,5.41h21c14.38,0,26,10,26-5.41,0-13.92-9.47-25.47-21.85-27.62a21.29,21.29,0,0,1-27.6-.24C94.38,41.42,84,53.39,84,68Z"/><path class="cls-5" d="M141.12,21c0-11.6-8.77-21-19.56-21S102,9.43,102,21s8.78,21,19.56,21S141.12,32.62,141.12,21Z"/><rect class="cls-3" x="165.9" y="11.38" width="46.88" height="47"/><line class="cls-6" x1="174.65" y1="19.34" x2="202.77" y2="19.34"/><line class="cls-6" x1="174.65" y1="27.1" x2="202.77" y2="27.1"/><line class="cls-6" x1="174.65" y1="34.86" x2="202.77" y2="34.86"/><line class="cls-6" x1="174.65" y1="42.62" x2="202.77" y2="42.62"/><line class="cls-6" x1="174.65" y1="50.38" x2="202.77" y2="50.38"/><path class="cls-5" d="M406.77,298c0,15.45-11.65,5.41-26,5.41h-21c-14.38,0-26,10-26-5.41,0-13.92,9.46-25.47,21.85-27.62a21.27,21.27,0,0,0,27.59-.24C396.4,271.42,406.77,283.39,406.77,298Z"/><path class="cls-5" d="M349.65,251c0-11.6,8.78-21,19.56-21s19.56,9.43,19.56,21-8.77,21-19.56,21S349.65,262.62,349.65,251Z"/><rect class="cls-3" x="278" y="241.38" width="46.88" height="47" transform="translate(602.88 529.75) rotate(-180)"/><line class="cls-6" x1="316.13" y1="249.34" x2="288" y2="249.34"/><line class="cls-6" x1="316.13" y1="257.1" x2="288" y2="257.1"/><line class="cls-6" x1="316.13" y1="264.86" x2="288" y2="264.86"/><line class="cls-6" x1="316.13" y1="272.62" x2="288" y2="272.62"/><line class="cls-6" x1="316.13" y1="280.38" x2="288" y2="280.38"/><path class="cls-5" d="M84,298c0,15.45,11.66,5.41,26,5.41h21c14.38,0,26,10,26-5.41,0-13.92-9.47-25.47-21.85-27.62a21.29,21.29,0,0,1-27.6-.24C94.38,271.42,84,283.39,84,298Z"/><path class="cls-5" d="M141.12,251c0-11.6-8.77-21-19.56-21S102,239.43,102,251s8.78,21,19.56,21S141.12,262.62,141.12,251Z"/><rect class="cls-3" x="165.9" y="241.38" width="46.88" height="47"/><line class="cls-6" x1="174.65" y1="249.34" x2="202.77" y2="249.34"/><line class="cls-6" x1="174.65" y1="257.1" x2="202.77" y2="257.1"/><line class="cls-6" x1="174.65" y1="264.86" x2="202.77" y2="264.86"/><line class="cls-6" x1="174.65" y1="272.62" x2="202.77" y2="272.62"/><line class="cls-6" x1="174.65" y1="280.38" x2="202.77" y2="280.38"/><line class="cls-7" x1="204.08" y1="68.72" x2="213.4" y2="81.07"/><polygon class="cls-8" points="209.68 81.06 212.8 80.28 214.41 77.49 216.27 84.88 209.68 81.06"/><line class="cls-7" x1="290.27" y1="68.72" x2="280.95" y2="81.07"/><polygon class="cls-8" points="279.94 77.49 281.55 80.28 284.67 81.06 278.08 84.88 279.94 77.49"/><line class="cls-7" x1="204.08" y1="232.88" x2="213.4" y2="220.53"/><polygon class="cls-8" points="214.41 224.11 212.8 221.32 209.68 220.54 216.27 216.72 214.41 224.11"/><line class="cls-7" x1="290.27" y1="232.88" x2="280.95" y2="220.53"/><polygon class="cls-8" points="284.67 220.54 281.55 221.32 279.94 224.11 278.08 216.72 284.67 220.54"/><line class="cls-7" x1="140.05" y1="152.67" x2="155.52" y2="152.87"/><polygon class="cls-8" points="153.24 155.8 154.53 152.86 153.31 149.88 160.3 152.93 153.24 155.8"/><line class="cls-7" x1="351.3" y1="152.67" x2="335.83" y2="152.87"/><polygon class="cls-8" points="338.04 149.88 336.82 152.86 338.12 155.8 331.06 152.93 338.04 149.88"/></svg>